<svg xmlns="http://www.w3.org/2000/svg" xmlns:svg="http://www.w3.org/2000/svg" xmlns:xlink="http://www.w3.org/1999/xlink" id="svg2" width="22" height="22" version="1.1" viewBox="0 0 22 22"><defs id="defs4"><filter id="filter5601" width="1.206" height="1.131" x="-.103" y="-.065"><feGaussianBlur id="feGaussianBlur5603" stdDeviation=".611"/></filter><linearGradient id="linearGradient5885" x1="29.09" x2="33.971" y1="11.773" y2="9.709" gradientUnits="userSpaceOnUse" xlink:href="#linearGradient5716"/><linearGradient id="linearGradient5716"><stop id="stop5718" offset="0" stop-color="#000" stop-opacity="1"/><stop id="stop5720" offset="1" stop-color="#484848" stop-opacity="1"/></linearGradient><filter id="filter5601-9" width="1.206" height="1.131" x="-.103" y="-.065"><feGaussianBlur id="feGaussianBlur5603-1" stdDeviation=".611"/></filter><linearGradient id="linearGradient5885-2" x1="29.09" x2="33.971" y1="11.773" y2="9.709" gradientUnits="userSpaceOnUse" xlink:href="#linearGradient5716"/><filter id="filter5601-0" width="1.206" height="1.131" x="-.103" y="-.065"><feGaussianBlur id="feGaussianBlur5603-6" stdDeviation=".611"/></filter><linearGradient id="linearGradient5885-26" x1="29.09" x2="33.971" y1="11.773" y2="9.709" gradientUnits="userSpaceOnUse" xlink:href="#linearGradient5716"/><filter id="filter4343" width="1.156" height="1.098" x="-.078" y="-.049" color-interpolation-filters="sRGB"><feGaussianBlur id="feGaussianBlur4345" stdDeviation=".37"/></filter><filter id="filter4347" width="1.312" height="1.195" x="-.156" y="-.098" color-interpolation-filters="sRGB"><feGaussianBlur id="feGaussianBlur4349" stdDeviation=".74"/></filter></defs><metadata id="metadata7"/><g id="layer1" transform="translate(0,-1030.3622)"><g id="default-pointer-c-7" display="inline" filter="url(#filter4347)" opacity=".6" transform="matrix(0.6730816,0,0,0.6730816,-8.867477,1035.3267)"><path marker-end="none" style="marker:none" id="path5567-9" fill="#000" fill-opacity="1" fill-rule="nonzero" stroke="#000" stroke-dasharray="none" stroke-dashoffset="0" stroke-linecap="butt" stroke-linejoin="miter" stroke-miterlimit="10" stroke-opacity="1" stroke-width="1" marker-mid="none" marker-start="none" d="m 27.135224,2.8483222 0,16.4402338 3.712311,-3.623922 2.12132,4.331029 c 0.519598,1.171377 3.220861,0.229524 2.452777,-1.336875 l -2.099224,-4.496756 4.684582,0 L 27.135224,2.8483222 Z" color="#000" display="block" enable-background="accumulate" filter="url(#filter5601-0)" opacity=".6" overflow="visible" visibility="visible"/><path id="path5565-2" fill="url(#linearGradient5885-26)" fill-opacity="1" fill-rule="nonzero" stroke="#0f0" stroke-dasharray="none" stroke-dashoffset="0" stroke-linecap="butt" stroke-linejoin="miter" stroke-miterlimit="10" stroke-opacity="1" stroke-width="1" marker-end="none" marker-mid="none" marker-start="none" d="m 26.604893,2.3179921 0,16.4402329 3.712311,-3.623922 2.12132,4.331029 c 0.519598,1.171377 3.220861,0.229524 2.452777,-1.336875 l -2.099224,-4.496756 4.684582,0 L 26.604893,2.3179921 Z" color="#000" display="block" enable-background="accumulate" opacity="1" overflow="visible" visibility="visible" style="marker:none"/></g><g id="default-pointer-c" display="inline" filter="url(#filter4343)" opacity=".8" transform="matrix(0.6730816,0,0,0.6730816,-11.066128,1033.5771)"><path marker-end="none" style="marker:none" id="path5567" fill="#000" fill-opacity="1" fill-rule="nonzero" stroke="#000" stroke-dasharray="none" stroke-dashoffset="0" stroke-linecap="butt" stroke-linejoin="miter" stroke-miterlimit="10" stroke-opacity="1" stroke-width="1" marker-mid="none" marker-start="none" d="m 27.135224,2.8483222 0,16.4402338 3.712311,-3.623922 2.12132,4.331029 c 0.519598,1.171377 3.220861,0.229524 2.452777,-1.336875 l -2.099224,-4.496756 4.684582,0 L 27.135224,2.8483222 Z" color="#000" display="block" enable-background="accumulate" filter="url(#filter5601)" opacity=".6" overflow="visible" visibility="visible"/><path id="path5565" fill="url(#linearGradient5885)" fill-opacity="1" fill-rule="nonzero" stroke="#0f0" stroke-dasharray="none" stroke-dashoffset="0" stroke-linecap="butt" stroke-linejoin="miter" stroke-miterlimit="10" stroke-opacity="1" stroke-width="1" marker-end="none" marker-mid="none" marker-start="none" d="m 26.604893,2.3179921 0,16.4402329 3.712311,-3.623922 2.12132,4.331029 c 0.519598,1.171377 3.220861,0.229524 2.452777,-1.336875 l -2.099224,-4.496756 4.684582,0 L 26.604893,2.3179921 Z" color="#000" display="block" enable-background="accumulate" opacity="1" overflow="visible" visibility="visible" style="marker:none"/></g><g id="default-pointer-c-9" display="inline" transform="matrix(0.6730816,0,0,0.6730816,-13.421048,1031.6661)"><path marker-end="none" style="marker:none" id="path5567-3" fill="#000" fill-opacity="1" fill-rule="nonzero" stroke="#000" stroke-dasharray="none" stroke-dashoffset="0" stroke-linecap="butt" stroke-linejoin="miter" stroke-miterlimit="10" stroke-opacity="1" stroke-width="1" marker-mid="none" marker-start="none" d="m 27.135224,2.8483222 0,16.4402338 3.712311,-3.623922 2.12132,4.331029 c 0.519598,1.171377 3.220861,0.229524 2.452777,-1.336875 l -2.099224,-4.496756 4.684582,0 L 27.135224,2.8483222 Z" color="#000" display="block" enable-background="accumulate" filter="url(#filter5601-9)" opacity=".6" overflow="visible" visibility="visible"/><path id="path5565-6" fill="url(#linearGradient5885-2)" fill-opacity="1" fill-rule="nonzero" stroke="#0f0" stroke-dasharray="none" stroke-dashoffset="0" stroke-linecap="butt" stroke-linejoin="miter" stroke-miterlimit="10" stroke-opacity="1" stroke-width="1" marker-end="none" marker-mid="none" marker-start="none" d="m 26.604893,2.3179921 0,16.4402329 3.712311,-3.623922 2.12132,4.331029 c 0.519598,1.171377 3.220861,0.229524 2.452777,-1.336875 l -2.099224,-4.496756 4.684582,0 L 26.604893,2.3179921 Z" color="#000" display="block" enable-background="accumulate" opacity="1" overflow="visible" visibility="visible" style="marker:none"/></g></g></svg>