<svg xmlns="http://www.w3.org/2000/svg" xmlns:svg="http://www.w3.org/2000/svg" xmlns:xlink="http://www.w3.org/1999/xlink" id="svg2" width="24" height="24" version="1.1" viewBox="0 0 24 24"><defs id="defs4"><linearGradient id="linearGradient4555"><stop id="stop4557" offset="0" stop-color="#01ff1e" stop-opacity="1"/><stop id="stop4559" offset="1" stop-color="#5a5a5a"/></linearGradient><linearGradient id="linearGradient4616"><stop id="stop4618" offset="0" stop-color="red" stop-opacity="1"/><stop id="stop4620" offset=".25" stop-color="#ff0" stop-opacity="1"/><stop id="stop4622" offset=".5" stop-color="#0ff" stop-opacity="1"/><stop id="stop4624" offset=".75" stop-color="#00f" stop-opacity="1"/><stop id="stop4626" offset="1" stop-color="#f0f" stop-opacity="1"/></linearGradient><marker id="marker4576" orient="auto" overflow="visible" refX="0" refY="0"><path id="path4578" fill-rule="evenodd" stroke="#000" stroke-width="1pt" d="m -2.5,-1 c 0,2.76 -2.24,5 -5,5 -2.76,0 -5,-2.24 -5,-5 0,-2.76 2.24,-5 5,-5 2.76,0 5,2.24 5,5 z" transform="matrix(0.8,0,0,0.8,5.92,0.8)"/></marker><marker id="DotL" orient="auto" overflow="visible" refX="0" refY="0"><path id="path4286" fill-rule="evenodd" stroke="#000" stroke-width="1pt" d="m -2.5,-1 c 0,2.76 -2.24,5 -5,5 -2.76,0 -5,-2.24 -5,-5 0,-2.76 2.24,-5 5,-5 2.76,0 5,2.24 5,5 z" transform="matrix(0.8,0,0,0.8,5.92,0.8)"/></marker><marker id="Arrow1Lend" orient="auto" overflow="visible" refX="0" refY="0"><path id="path4228" fill-rule="evenodd" stroke="#000" stroke-width="1pt" d="M 0,0 5,-5 -12.5,0 5,5 0,0 Z" transform="matrix(-0.8,0,0,-0.8,-10,0)"/></marker><marker id="marker4496" orient="auto" overflow="visible" refX="0" refY="0"><path id="path4498" fill-rule="evenodd" stroke="#000" stroke-width="1pt" d="M 0,0 5,-5 -12.5,0 5,5 0,0 Z" transform="matrix(0.8,0,0,0.8,10,0)"/></marker><marker id="marker4481" orient="auto" overflow="visible" refX="0" refY="0"><path id="path4225" fill-rule="evenodd" stroke="#000" stroke-width="1pt" d="M 0,0 5,-5 -12.5,0 5,5 0,0 Z" transform="matrix(0.8,0,0,0.8,10,0)"/></marker><marker id="Arrow1Lstart" orient="auto" overflow="visible" refX="0" refY="0"><path id="path4461" fill="#0f0" fill-opacity="1" fill-rule="evenodd" stroke="#000" stroke-opacity="1" stroke-width="1pt" d="M 0,0 5,-5 -12.5,0 5,5 0,0 Z" transform="matrix(0.8,0,0,0.8,10,0)"/></marker><linearGradient id="linearGradient4219" x1="47.922" x2="221.895" y1="923.408" y2="923.408" gradientUnits="userSpaceOnUse" xlink:href="#linearGradient4616"/><linearGradient id="linearGradient4190"><stop id="stop4192" offset="0"/><stop id="stop4194" offset="1" stop-opacity="0"/></linearGradient><linearGradient id="linearGradient7603"><stop id="stop7605" offset="0" stop-color="#afafaf"/><stop id="stop7607" offset="1" stop-color="#5a5a5a"/></linearGradient><linearGradient id="linearGradient4135" x1="24.5" x2="24.5" y1="3" y2="44.5" gradientUnits="userSpaceOnUse" xlink:href="#linearGradient7603"/><radialGradient id="radialGradient4143" cx="23.528" cy="10.895" r="2.5" gradientTransform="matrix(1.3889,-2.8719e-7,4.4279e-7,2.1414,-9.1501,-13.541)" gradientUnits="userSpaceOnUse"><stop id="stop4576" offset="0" stop-color="#828282"/><stop id="stop4578" offset="1" stop-color="#646662"/></radialGradient><radialGradient id="radialGradient4172" cx="16.184" cy="16.539" r="13.477" gradientTransform="matrix(4.3195,-0.085864,0.060478,3.0424,-54.725,-36.555)" gradientUnits="userSpaceOnUse"><stop id="stop6546" offset="0" stop-color="#fafafa"/><stop id="stop6548" offset="1" stop-color="#c8c8c8"/></radialGradient><linearGradient id="linearGradient4174" x1="24.559" x2="24.5" y1="3" y2="45" gradientUnits="userSpaceOnUse" xlink:href="#linearGradient7603"/><linearGradient id="linearGradient4188" x1="23.823" x2="24.559" y1="4.11" y2="44" gradientTransform="translate(-3.2210808,-4.985006)" gradientUnits="userSpaceOnUse" xlink:href="#linearGradient4616"><stop id="stop6969" offset="0" stop-color="#fff"/><stop id="stop6971" offset="1" stop-color="#fff" stop-opacity="0"/></linearGradient><linearGradient id="linearGradient4198" x1="16" x2="13" y1="33" y2="34" gradientUnits="userSpaceOnUse" xlink:href="#linearGradient4190"/><linearGradient id="linearGradient4206" x1="32.99" x2="36" y1="33.05" y2="34" gradientUnits="userSpaceOnUse" xlink:href="#linearGradient4190"/><radialGradient id="radialGradient3626" cx="4.602" cy="34.157" r="8.342" gradientTransform="matrix(1,0,0,0.74569,0,8.6866)" gradientUnits="userSpaceOnUse" xlink:href="#linearGradient4190"/><linearGradient id="linearGradient4188-6" x1="23.823" x2="24.559" y1="4.11" y2="44" gradientTransform="matrix(0.79878884,0,0,0.79878884,169.7406,1042.3879)" gradientUnits="userSpaceOnUse"><stop id="stop6969-2" offset="0" stop-color="#fff"/><stop id="stop6971-6" offset="1" stop-color="#fff" stop-opacity="0"/></linearGradient><radialGradient id="radialGradient4143-8" cx="23.528" cy="10.895" r="2.5" gradientTransform="matrix(2.0716025,-4.2835592e-7,6.6043984e-7,3.1939878,85.291306,997.87195)" gradientUnits="userSpaceOnUse"><stop id="stop4576-7" offset="0" stop-color="#828282"/><stop id="stop4578-9" offset="1" stop-color="#646662"/></radialGradient><linearGradient id="linearGradient4135-2" x1="24.5" x2="24.5" y1="3" y2="44.5" gradientTransform="matrix(1.4915419,0,0,1.4915419,98.939063,1018.0689)" gradientUnits="userSpaceOnUse" xlink:href="#linearGradient4555"/><linearGradient id="linearGradient4321" x1="47.922" x2="221.895" y1="923.408" y2="923.408" gradientUnits="userSpaceOnUse" xlink:href="#linearGradient4616"/></defs><metadata id="metadata7"/><g id="layer1" transform="translate(0,-1028.3622)"><g id="layer1-3" transform="translate(-34.591253,181.16838)"><g id="g4839" stroke="url(#linearGradient4219)" stroke-opacity="1" transform="matrix(1.2518953,0,0,1.2518953,-22.749081,-360.20666)"><g id="g4528" stroke="url(#linearGradient4321)" stroke-opacity="1" transform="matrix(0.18526723,-0.07226682,0.07226682,0.18526723,-46.206969,789.35349)"><g id="g4571" stroke="#0f0" stroke-opacity="1" transform="matrix(0.9272789,0.37437127,-0.37437127,0.9272789,412.15742,17.099394)"><g id="g4354" transform="matrix(1.4289758,0,0,1.4289758,-59.807047,-450.13876)"><path id="path4254-6-5" fill="none" fill-rule="evenodd" stroke="#01ff3d" stroke-dasharray="none" stroke-dashoffset="0" stroke-linecap="butt" stroke-linejoin="miter" stroke-miterlimit="4" stroke-opacity="1" stroke-width="4.017" d="m 154.4323,1049.8727 5.73786,-0.068 4.84177,4.7288 0.0708,5.9956 -4.35781,4.4619 -5.88915,0.069 -4.73689,-4.6263 -0.0706,-5.9816 4.40402,-4.5794 z"/><path id="path4254-6-56" fill="none" fill-rule="evenodd" stroke="#01ff3d" stroke-dasharray="none" stroke-dashoffset="0" stroke-linecap="butt" stroke-linejoin="miter" stroke-miterlimit="4" stroke-opacity="1" stroke-width="4.017" d="m 141.96616,1065.1425 5.73786,-0.068 4.84177,4.7288 0.0708,5.9956 -4.35781,4.4619 -5.88915,0.069 -4.73689,-4.6263 -0.0706,-5.9816 4.40402,-4.5794 z"/><path id="path4254-6-9" fill="none" fill-rule="evenodd" stroke="#01ff3d" stroke-dasharray="none" stroke-dashoffset="0" stroke-linecap="butt" stroke-linejoin="miter" stroke-miterlimit="4" stroke-opacity="1" stroke-width="4.017" d="m 122.43788,1065.1511 5.73786,-0.068 4.84177,4.7288 0.0708,5.9956 -4.35781,4.4619 -5.88915,0.069 -4.73689,-4.6263 -0.0706,-5.9816 4.40402,-4.5794 z"/><path id="path4254-6-2" fill="none" fill-rule="evenodd" stroke="#01ff3d" stroke-dasharray="none" stroke-dashoffset="0" stroke-linecap="butt" stroke-linejoin="miter" stroke-miterlimit="4" stroke-opacity="1" stroke-width="4.017" d="m 109.48287,1049.892 5.73786,-0.068 4.84177,4.7288 0.0708,5.9956 -4.35781,4.4619 -5.88915,0.069 -4.73689,-4.6263 -0.0706,-5.9816 4.40402,-4.5794 z"/><path id="path4254-6-56-6" fill="none" fill-rule="evenodd" stroke="#01ff3d" stroke-dasharray="none" stroke-dashoffset="0" stroke-linecap="butt" stroke-linejoin="miter" stroke-miterlimit="4" stroke-opacity="1" stroke-width="4.017" d="m 141.33237,1034.8392 5.73786,-0.068 4.84177,4.7288 0.0708,5.9956 -4.3578,4.4619 -5.88916,0.069 -4.73689,-4.6263 -0.0706,-5.9816 4.40402,-4.5794 z"/><path id="path4254-6-9-0" fill="none" fill-rule="evenodd" stroke="#01ff3d" stroke-dasharray="none" stroke-dashoffset="0" stroke-linecap="butt" stroke-linejoin="miter" stroke-miterlimit="4" stroke-opacity="1" stroke-width="4.017" d="m 121.80409,1034.8478 5.73786,-0.068 4.84177,4.7288 0.0708,5.9956 -4.35781,4.4619 -5.88915,0.069 -4.73689,-4.6263 -0.0706,-5.9816 4.40402,-4.5794 z"/></g></g></g></g></g></g></svg>