<svg xmlns="http://www.w3.org/2000/svg" xmlns:svg="http://www.w3.org/2000/svg" id="svg4896" width="22" height="22" enable-background="new" version="1.1" viewBox="0 0 22 22"><metadata id="metadata4901"/><g id="layer1" transform="translate(0,-1030.3621)"><circle id="path5448" cx="11" cy="1041.362" r="9" fill="none" fill-opacity="1" stroke="#01ff1f" stroke-dasharray="none" stroke-linecap="round" stroke-linejoin="round" stroke-miterlimit="4" stroke-opacity="1" stroke-width="1.5" opacity="1"/><path id="path4706" fill="none" fill-rule="evenodd" stroke="#01ff1f" stroke-linecap="butt" stroke-linejoin="miter" stroke-opacity="1" stroke-width="1" d="m 2.1596497,1040.6337 c 2.6285584,0.025 5.2292346,1.1537 7.0426731,3.0567 1.6726722,1.7553 2.6618712,4.1457 2.7186142,6.5697"/><path id="path4706-2" fill="none" fill-rule="evenodd" stroke="#01ff1f" stroke-linecap="butt" stroke-linejoin="miter" stroke-opacity="1" stroke-width="1.357" d="m 2.573911,1038.3509 c 2.6513845,-0.9715 5.7181414,-0.7394 8.193062,0.6202 1.793414,0.9852 3.268491,2.5397 4.158368,4.3823 0.889876,1.8426 1.19029,3.9644 0.846891,5.9816"/><path id="path4706-2-7" fill="none" fill-rule="evenodd" stroke="#01ff1f" stroke-linecap="butt" stroke-linejoin="miter" stroke-opacity="1" stroke-width="1.357" d="m 3.9571428,1035.7983 c 2.8709009,-1.5746 6.5408612,-1.5851 9.4207402,-0.027 1.859125,1.0058 3.378401,2.6274 4.261222,4.548 0.88282,1.9206 1.12422,4.1295 0.677073,6.1954"/></g></svg>