<svg xmlns="http://www.w3.org/2000/svg" xmlns:svg="http://www.w3.org/2000/svg" xmlns:xlink="http://www.w3.org/1999/xlink" id="svg4896" width="22" height="22" enable-background="new" version="1.1" viewBox="0 0 22 22"><defs id="defs4898"><linearGradient id="linearGradient4197"><stop id="stop4199" offset="0" stop-color="#01ff1f" stop-opacity="1"/><stop id="stop4201" offset="1" stop-color="#01ff1f" stop-opacity="0"/></linearGradient><linearGradient id="linearGradient4203" x1="10.392" x2="14.487" y1="1046.095" y2="1043.35" gradientTransform="matrix(0.99992701,-0.01208227,0.01208227,0.99992701,-12.585347,0.20009324)" gradientUnits="userSpaceOnUse" xlink:href="#linearGradient4197"/></defs><metadata id="metadata4901"/><g id="layer1" transform="translate(0,-1030.3621)"><circle id="path5448" cx="11" cy="1041.362" r="9" fill="none" fill-opacity="1" stroke="#01ff1f" stroke-dasharray="none" stroke-linecap="round" stroke-linejoin="round" stroke-miterlimit="4" stroke-opacity="1" stroke-width="1.5" opacity="1"/><path id="path4167" fill="none" fill-rule="evenodd" stroke="#01ff1f" stroke-dasharray="none" stroke-linecap="butt" stroke-linejoin="miter" stroke-miterlimit="4" stroke-opacity="1" stroke-width="1.511" d="m 5.6985078,1041.443 c -0.00932,-1.3568 0.5338654,-2.7094 1.479021,-3.6829 0.9792584,-1.0086 2.3764034,-1.5956 3.7822012,-1.5997 1.528172,-0 3.045982,0.6847 4.044631,1.8414 0.796753,0.9229 1.259954,2.1278 1.286592,3.3467"/><path id="path4167-7" fill="none" fill-rule="evenodd" stroke="url(#linearGradient4203)" stroke-dasharray="none" stroke-linecap="butt" stroke-linejoin="miter" stroke-miterlimit="4" stroke-opacity="1" stroke-width="1.511" d="m 16.294884,1041.3083 c -0.01318,1.3444 -0.562891,2.6762 -1.501848,3.6385 -0.981538,1.0059 -2.376747,1.594 -3.7822,1.5998 -1.5285681,0.01 -3.0483262,-0.6822 -4.0446312,-1.8415 -0.7802758,-0.9079 -1.2364188,-2.0888 -1.269089,-3.2855"/></g></svg>