<svg xmlns="http://www.w3.org/2000/svg" xmlns:svg="http://www.w3.org/2000/svg" id="svg4896" width="22" height="22" enable-background="new" version="1.1" viewBox="0 0 22 22"><metadata id="metadata4901"/><g id="layer1" transform="translate(0,-1030.3621)"><circle id="path5448" cx="11" cy="1041.362" r="9" fill="none" fill-opacity="1" stroke="#01ff1f" stroke-dasharray="none" stroke-linecap="round" stroke-linejoin="round" stroke-miterlimit="4" stroke-opacity="1" stroke-width="1.5" opacity="1"/><path id="path4161" fill="#0f0" fill-opacity="1" stroke="none" stroke-dasharray="none" stroke-dashoffset="0" stroke-linecap="butt" stroke-linejoin="miter" stroke-miterlimit="4" stroke-opacity="1" stroke-width="1.5" d="m 9.3049145,1038.5787 -1.1107947,-0.3767 -0.9400275,0.7015 0.014991,-1.1729 -0.9576504,-0.6772 1.1200595,-0.3482 0.348167,-1.12 0.6772439,0.9576 1.1728295,-0.015 -0.7014998,0.9401 z" opacity="1"/><path id="path4161-3" fill="#0f0" fill-opacity="1" stroke="none" stroke-dasharray="none" stroke-dashoffset="0" stroke-linecap="butt" stroke-linejoin="miter" stroke-miterlimit="4" stroke-opacity="1" stroke-width="1.5" d="m 14.286116,1040.8262 -1.30241,-0.4416 -1.102184,0.8225 0.01758,-1.3752 -1.122848,-0.7941 1.313273,-0.4082 0.408226,-1.3133 0.794071,1.1229 1.375145,-0.018 -0.82251,1.1022 z" opacity="1" transform="matrix(1.5613377,0.9014387,-0.9014387,1.5613377,931.28777,-593.17805)"/><path id="path4161-3-6" fill="#0f0" fill-opacity="1" stroke="none" stroke-dasharray="none" stroke-dashoffset="0" stroke-linecap="butt" stroke-linejoin="miter" stroke-miterlimit="4" stroke-opacity="1" stroke-width="1.5" d="m 14.286116,1040.8262 -1.30241,-0.4416 -1.102184,0.8225 0.01758,-1.3752 -1.122848,-0.7941 1.313273,-0.4082 0.408226,-1.3133 0.794071,1.1229 1.375145,-0.018 -0.82251,1.1022 z" opacity="1" transform="matrix(1.1361105,-0.30441988,0.30441988,1.1361105,-322.64081,-131.64321)"/></g></svg>