<svg xmlns="http://www.w3.org/2000/svg" xmlns:svg="http://www.w3.org/2000/svg" xmlns:xlink="http://www.w3.org/1999/xlink" id="svg4896" width="22" height="22" enable-background="new" version="1.1" viewBox="0 0 22 22"><defs id="defs4898"><linearGradient id="linearGradient5495"><stop id="stop5497" offset="0" stop-color="#01ff1f" stop-opacity="1"/><stop id="stop5499" offset="1" stop-color="#01ff1f" stop-opacity="0"/></linearGradient><linearGradient id="linearGradient5501" x1="11.858" x2="14.248" y1="1041.564" y2="1037.46" gradientTransform="matrix(0.71396322,0,0,0.81926794,2.0416491,189.90995)" gradientUnits="userSpaceOnUse" xlink:href="#linearGradient5495"/></defs><metadata id="metadata4901"/><g id="layer1" transform="translate(0,-1030.3621)"><circle id="path5448" cx="11" cy="1041.362" r="9" fill="none" fill-opacity="1" stroke="#01ff1f" stroke-dasharray="none" stroke-linecap="round" stroke-linejoin="round" stroke-miterlimit="4" stroke-opacity="1" stroke-width="1.5" opacity="1"/><path id="path5487" fill="none" fill-rule="evenodd" stroke="#01ff1f" stroke-dasharray="none" stroke-linecap="butt" stroke-linejoin="round" stroke-miterlimit="4" stroke-opacity="1" stroke-width="1.5" d="m 2.4257262,1043.3335 c 1.8567061,-0.6751 3.5641063,-1.7575 4.9668562,-3.1487 0.6793103,-0.6737 1.3082103,-1.434 2.1602622,-1.8692 0.5932564,-0.303 1.2686664,-0.4297 1.9345304,-0.4102 0.665864,0.019 1.322858,0.1815 1.941243,0.4292 1.479866,0.5928 2.751777,1.6912 3.553681,3.069 -0.625606,-0.2611 -1.319911,-0.3556 -1.992542,-0.271 -0.67263,0.085 -1.321962,0.3478 -1.863474,0.7557 -0.321863,0.2424 -0.606865,0.5362 -0.824284,0.8755 -0.280174,0.4372 -0.444753,0.9494 -0.46072,1.4684 -0.01597,0.519 0.118118,1.0432 0.39064,1.4852 0.311982,0.506 0.791542,0.8901 1.308088,1.1843 0.997714,0.5682 2.167314,0.8297 3.31201,0.7407"/><path id="path5491" fill="none" fill-rule="evenodd" stroke="url(#linearGradient5501)" stroke-dasharray="none" stroke-linecap="round" stroke-linejoin="round" stroke-miterlimit="4" stroke-opacity=".314" stroke-width="2" d="m 11.38462,1050.2176 c -0.99084,-0.1739 -1.9225471,-0.6697 -2.6202664,-1.3944 -0.6977194,-0.7246 -1.157841,-1.6745 -1.2940128,-2.6712 -0.2083485,-1.525 0.3616043,-3.1192 1.4310385,-4.2262 0.8095998,-0.838 1.8930937,-1.4071 3.0425787,-1.5979"/></g></svg>