<svg xmlns="http://www.w3.org/2000/svg" xmlns:svg="http://www.w3.org/2000/svg" xmlns:xlink="http://www.w3.org/1999/xlink" id="svg2" width="24" height="24" version="1.1" viewBox="0 0 24 24"><title id="title4854">Polychromatic Headset</title><defs id="defs4"><linearGradient id="linearGradient4555"><stop id="stop4557" offset="0" stop-color="#01ff1e" stop-opacity="1"/><stop id="stop4559" offset="1" stop-color="#5a5a5a"/></linearGradient><linearGradient id="linearGradient4616"><stop id="stop4618" offset="0" stop-color="red" stop-opacity="1"/><stop id="stop4620" offset=".25" stop-color="#ff0" stop-opacity="1"/><stop id="stop4622" offset=".5" stop-color="#0ff" stop-opacity="1"/><stop id="stop4624" offset=".75" stop-color="#00f" stop-opacity="1"/><stop id="stop4626" offset="1" stop-color="#f0f" stop-opacity="1"/></linearGradient><marker id="marker4576" orient="auto" overflow="visible" refX="0" refY="0"><path id="path4578" fill-rule="evenodd" stroke="#000" stroke-width="1pt" d="m -2.5,-1 c 0,2.76 -2.24,5 -5,5 -2.76,0 -5,-2.24 -5,-5 0,-2.76 2.24,-5 5,-5 2.76,0 5,2.24 5,5 z" transform="matrix(0.8,0,0,0.8,5.92,0.8)"/></marker><marker id="DotL" orient="auto" overflow="visible" refX="0" refY="0"><path id="path4286" fill-rule="evenodd" stroke="#000" stroke-width="1pt" d="m -2.5,-1 c 0,2.76 -2.24,5 -5,5 -2.76,0 -5,-2.24 -5,-5 0,-2.76 2.24,-5 5,-5 2.76,0 5,2.24 5,5 z" transform="matrix(0.8,0,0,0.8,5.92,0.8)"/></marker><marker id="Arrow1Lend" orient="auto" overflow="visible" refX="0" refY="0"><path id="path4228" fill-rule="evenodd" stroke="#000" stroke-width="1pt" d="M 0,0 5,-5 -12.5,0 5,5 0,0 Z" transform="matrix(-0.8,0,0,-0.8,-10,0)"/></marker><marker id="marker4496" orient="auto" overflow="visible" refX="0" refY="0"><path id="path4498" fill-rule="evenodd" stroke="#000" stroke-width="1pt" d="M 0,0 5,-5 -12.5,0 5,5 0,0 Z" transform="matrix(0.8,0,0,0.8,10,0)"/></marker><marker id="marker4481" orient="auto" overflow="visible" refX="0" refY="0"><path id="path4225" fill-rule="evenodd" stroke="#000" stroke-width="1pt" d="M 0,0 5,-5 -12.5,0 5,5 0,0 Z" transform="matrix(0.8,0,0,0.8,10,0)"/></marker><marker id="Arrow1Lstart" orient="auto" overflow="visible" refX="0" refY="0"><path id="path4461" fill="#0f0" fill-opacity="1" fill-rule="evenodd" stroke="#000" stroke-opacity="1" stroke-width="1pt" d="M 0,0 5,-5 -12.5,0 5,5 0,0 Z" transform="matrix(0.8,0,0,0.8,10,0)"/></marker><linearGradient id="linearGradient4219" x1="47.922" x2="221.895" y1="923.408" y2="923.408" gradientUnits="userSpaceOnUse" xlink:href="#linearGradient4616"/><linearGradient id="linearGradient4190"><stop id="stop4192" offset="0"/><stop id="stop4194" offset="1" stop-opacity="0"/></linearGradient><linearGradient id="linearGradient7603"><stop id="stop7605" offset="0" stop-color="#afafaf"/><stop id="stop7607" offset="1" stop-color="#5a5a5a"/></linearGradient><linearGradient id="linearGradient4135" x1="24.5" x2="24.5" y1="3" y2="44.5" gradientUnits="userSpaceOnUse" xlink:href="#linearGradient7603"/><radialGradient id="radialGradient4143" cx="23.528" cy="10.895" r="2.5" gradientTransform="matrix(1.3889,-2.8719e-7,4.4279e-7,2.1414,-9.1501,-13.541)" gradientUnits="userSpaceOnUse"><stop id="stop4576" offset="0" stop-color="#828282"/><stop id="stop4578" offset="1" stop-color="#646662"/></radialGradient><radialGradient id="radialGradient4172" cx="16.184" cy="16.539" r="13.477" gradientTransform="matrix(4.3195,-0.085864,0.060478,3.0424,-54.725,-36.555)" gradientUnits="userSpaceOnUse"><stop id="stop6546" offset="0" stop-color="#fafafa"/><stop id="stop6548" offset="1" stop-color="#c8c8c8"/></radialGradient><linearGradient id="linearGradient4174" x1="24.559" x2="24.5" y1="3" y2="45" gradientUnits="userSpaceOnUse" xlink:href="#linearGradient7603"/><linearGradient id="linearGradient4188" x1="23.823" x2="24.559" y1="4.11" y2="44" gradientTransform="translate(-3.2210808,-4.985006)" gradientUnits="userSpaceOnUse" xlink:href="#linearGradient4616"><stop id="stop6969" offset="0" stop-color="#fff"/><stop id="stop6971" offset="1" stop-color="#fff" stop-opacity="0"/></linearGradient><linearGradient id="linearGradient4198" x1="16" x2="13" y1="33" y2="34" gradientUnits="userSpaceOnUse" xlink:href="#linearGradient4190"/><linearGradient id="linearGradient4206" x1="32.99" x2="36" y1="33.05" y2="34" gradientUnits="userSpaceOnUse" xlink:href="#linearGradient4190"/><radialGradient id="radialGradient3626" cx="4.602" cy="34.157" r="8.342" gradientTransform="matrix(1,0,0,0.74569,0,8.6866)" gradientUnits="userSpaceOnUse" xlink:href="#linearGradient4190"/><linearGradient id="linearGradient4188-6" x1="23.823" x2="24.559" y1="4.11" y2="44" gradientTransform="matrix(0.79878884,0,0,0.79878884,169.7406,1042.3879)" gradientUnits="userSpaceOnUse"><stop id="stop6969-2" offset="0" stop-color="#fff"/><stop id="stop6971-6" offset="1" stop-color="#fff" stop-opacity="0"/></linearGradient><radialGradient id="radialGradient4143-8" cx="23.528" cy="10.895" r="2.5" gradientTransform="matrix(2.0716025,-4.2835592e-7,6.6043984e-7,3.1939878,85.291306,997.87195)" gradientUnits="userSpaceOnUse"><stop id="stop4576-7" offset="0" stop-color="#828282"/><stop id="stop4578-9" offset="1" stop-color="#646662"/></radialGradient><linearGradient id="linearGradient4135-2" x1="24.5" x2="24.5" y1="3" y2="44.5" gradientTransform="matrix(1.4915419,0,0,1.4915419,98.939063,1018.0689)" gradientUnits="userSpaceOnUse" xlink:href="#linearGradient4555"/><linearGradient id="linearGradient7637" x1="47.922" x2="221.895" y1="923.408" y2="923.408" gradientUnits="userSpaceOnUse" xlink:href="#linearGradient4616"/></defs><metadata id="metadata7"/><g id="layer1" transform="translate(-35.09189,-847.07199)"><g id="g4839" stroke="url(#linearGradient4219)" stroke-opacity="1" transform="matrix(1.2518953,0,0,1.2518953,-22.749081,-360.20666)"><g id="layer10" stroke="url(#linearGradient7637)" transform="matrix(1.0674014,0,0,1.0674014,-39.744011,466.96318)"><path id="path10296" fill="#0f0" fill-opacity="1" stroke="#0f0" stroke-opacity="1" d="m 88.969,467 c -3.3055,0 -6.0239,3.0084 -5.9686,5.7188 0.06164,3.0222 0.93359,4.6955 1.125,5.2812 l 1.4005,0 c -1.1615,-2.2915 -1.0491,-5.1562 -1.0491,-5.1562 0,-2.3726 2.0067,-4.3125 4.4921,-4.3125 2.4855,0 4.4998,1.9206 4.4921,4.375 -0.02342,1.6741 -0.17168,2.2836 -1.0052,4.8125 l 1.5707,0 c 0.2245,-0.64458 0.97382,-2.0655 0.97382,-4.9062 0,-2.8298 -2.726,-5.8125 -6.0314,-5.8125 z"/><rect id="rect10298" width="3.145" height="5.132" x="-234.41" y="431.7" fill="#0f0" fill-opacity="1" stroke="#0f0" stroke-opacity="1" rx="1.862" ry="1.861" transform="matrix(-0.96317,-0.26888,-0.30267,0.95309,0,0)"/><rect id="rect10300" width="3.145" height="5.132" x="-64.605" y="479.61" fill="#0f0" fill-opacity="1" stroke="#0f0" stroke-opacity="1" rx="1.862" ry="1.861" transform="matrix(0.96317,-0.26888,0.30267,0.95309,0,0)"/><rect id="rect10302" width="3.906" height="1.969" x="87.063" y="480.97" fill="#0f0" fill-opacity="1" stroke="none" stroke-opacity="1" color="#000" rx=".984" ry=".984"/><path id="path10304" fill="#0f0" fill-opacity="1" stroke="none" stroke-opacity="1" d="m 93.594,476.41 a 0.50005,0.50005 0 0 0 -0.0625,0.96875 l 1.468,0.53 -0.03125,1.75 c -0.0049,0.53205 -0.13589,0.86771 -0.3125,1.0625 -0.176,0.19 -0.402,0.28 -0.718,0.28 l -4.1562,0 a 0.50005,0.50005 0 1 0 0,1 l 4.1562,0 c 0.54755,0 1.0927,-0.21022 1.4688,-0.625 0.37608,-0.41478 0.556,-1.009 0.5625,-1.7188 l 0.031,-2.1 0,-0.34375 -0.3125,-0.125 -1.7812,-0.65625 a 0.50005,0.50005 0 0 0 -0.3125,-0.0312 z" color="#000" style="text-indent:0;text-transform:none;block-progression:tb"/></g></g></g></svg>