<svg xmlns="http://www.w3.org/2000/svg" xmlns:svg="http://www.w3.org/2000/svg" xmlns:xlink="http://www.w3.org/1999/xlink" id="svg2" width="24" height="24" version="1.1" viewBox="0 0 24 24"><title id="title4854">Polychromatic Mouse</title><defs id="defs4"><linearGradient id="linearGradient4555"><stop id="stop4557" offset="0" stop-color="#01ff1e" stop-opacity="1"/><stop id="stop4559" offset="1" stop-color="#5a5a5a"/></linearGradient><linearGradient id="linearGradient4616"><stop id="stop4618" offset="0" stop-color="red" stop-opacity="1"/><stop id="stop4620" offset=".25" stop-color="#ff0" stop-opacity="1"/><stop id="stop4622" offset=".5" stop-color="#0ff" stop-opacity="1"/><stop id="stop4624" offset=".75" stop-color="#00f" stop-opacity="1"/><stop id="stop4626" offset="1" stop-color="#f0f" stop-opacity="1"/></linearGradient><marker id="marker4576" orient="auto" overflow="visible" refX="0" refY="0"><path id="path4578" fill-rule="evenodd" stroke="#000" stroke-width="1pt" d="m -2.5,-1 c 0,2.76 -2.24,5 -5,5 -2.76,0 -5,-2.24 -5,-5 0,-2.76 2.24,-5 5,-5 2.76,0 5,2.24 5,5 z" transform="matrix(0.8,0,0,0.8,5.92,0.8)"/></marker><marker id="DotL" orient="auto" overflow="visible" refX="0" refY="0"><path id="path4286" fill-rule="evenodd" stroke="#000" stroke-width="1pt" d="m -2.5,-1 c 0,2.76 -2.24,5 -5,5 -2.76,0 -5,-2.24 -5,-5 0,-2.76 2.24,-5 5,-5 2.76,0 5,2.24 5,5 z" transform="matrix(0.8,0,0,0.8,5.92,0.8)"/></marker><marker id="Arrow1Lend" orient="auto" overflow="visible" refX="0" refY="0"><path id="path4228" fill-rule="evenodd" stroke="#000" stroke-width="1pt" d="M 0,0 5,-5 -12.5,0 5,5 0,0 Z" transform="matrix(-0.8,0,0,-0.8,-10,0)"/></marker><marker id="marker4496" orient="auto" overflow="visible" refX="0" refY="0"><path id="path4498" fill-rule="evenodd" stroke="#000" stroke-width="1pt" d="M 0,0 5,-5 -12.5,0 5,5 0,0 Z" transform="matrix(0.8,0,0,0.8,10,0)"/></marker><marker id="marker4481" orient="auto" overflow="visible" refX="0" refY="0"><path id="path4225" fill-rule="evenodd" stroke="#000" stroke-width="1pt" d="M 0,0 5,-5 -12.5,0 5,5 0,0 Z" transform="matrix(0.8,0,0,0.8,10,0)"/></marker><marker id="Arrow1Lstart" orient="auto" overflow="visible" refX="0" refY="0"><path id="path4461" fill="#0f0" fill-opacity="1" fill-rule="evenodd" stroke="#000" stroke-opacity="1" stroke-width="1pt" d="M 0,0 5,-5 -12.5,0 5,5 0,0 Z" transform="matrix(0.8,0,0,0.8,10,0)"/></marker><linearGradient id="linearGradient4219" x1="47.922" x2="221.895" y1="923.408" y2="923.408" gradientUnits="userSpaceOnUse" xlink:href="#linearGradient4616"/><linearGradient id="linearGradient4190"><stop id="stop4192" offset="0"/><stop id="stop4194" offset="1" stop-opacity="0"/></linearGradient><linearGradient id="linearGradient7603"><stop id="stop7605" offset="0" stop-color="#afafaf"/><stop id="stop7607" offset="1" stop-color="#5a5a5a"/></linearGradient><linearGradient id="linearGradient4135" x1="24.5" x2="24.5" y1="3" y2="44.5" gradientUnits="userSpaceOnUse" xlink:href="#linearGradient7603"/><radialGradient id="radialGradient4143" cx="23.528" cy="10.895" r="2.5" gradientTransform="matrix(1.3889,-2.8719e-7,4.4279e-7,2.1414,-9.1501,-13.541)" gradientUnits="userSpaceOnUse"><stop id="stop4576" offset="0" stop-color="#828282"/><stop id="stop4578" offset="1" stop-color="#646662"/></radialGradient><radialGradient id="radialGradient4172" cx="16.184" cy="16.539" r="13.477" gradientTransform="matrix(4.3195,-0.085864,0.060478,3.0424,-54.725,-36.555)" gradientUnits="userSpaceOnUse"><stop id="stop6546" offset="0" stop-color="#fafafa"/><stop id="stop6548" offset="1" stop-color="#c8c8c8"/></radialGradient><linearGradient id="linearGradient4174" x1="24.559" x2="24.5" y1="3" y2="45" gradientUnits="userSpaceOnUse" xlink:href="#linearGradient7603"/><linearGradient id="linearGradient4188" x1="23.823" x2="24.559" y1="4.11" y2="44" gradientTransform="translate(-3.2210808,-4.985006)" gradientUnits="userSpaceOnUse" xlink:href="#linearGradient4616"><stop id="stop6969" offset="0" stop-color="#fff"/><stop id="stop6971" offset="1" stop-color="#fff" stop-opacity="0"/></linearGradient><linearGradient id="linearGradient4198" x1="16" x2="13" y1="33" y2="34" gradientUnits="userSpaceOnUse" xlink:href="#linearGradient4190"/><linearGradient id="linearGradient4206" x1="32.99" x2="36" y1="33.05" y2="34" gradientUnits="userSpaceOnUse" xlink:href="#linearGradient4190"/><radialGradient id="radialGradient3626" cx="4.602" cy="34.157" r="8.342" gradientTransform="matrix(1,0,0,0.74569,0,8.6866)" gradientUnits="userSpaceOnUse" xlink:href="#linearGradient4190"/><linearGradient id="linearGradient4188-6" x1="23.823" x2="24.559" y1="4.11" y2="44" gradientTransform="matrix(0.79878884,0,0,0.79878884,169.7406,1042.3879)" gradientUnits="userSpaceOnUse"><stop id="stop6969-2" offset="0" stop-color="#fff"/><stop id="stop6971-6" offset="1" stop-color="#fff" stop-opacity="0"/></linearGradient><radialGradient id="radialGradient4143-8" cx="23.528" cy="10.895" r="2.5" gradientTransform="matrix(2.0716025,-4.2835592e-7,6.6043984e-7,3.1939878,85.291306,997.87195)" gradientUnits="userSpaceOnUse"><stop id="stop4576-7" offset="0" stop-color="#828282"/><stop id="stop4578-9" offset="1" stop-color="#646662"/></radialGradient><linearGradient id="linearGradient4135-2" x1="24.5" x2="24.5" y1="3" y2="44.5" gradientTransform="matrix(1.4915419,0,0,1.4915419,98.939063,1018.0689)" gradientUnits="userSpaceOnUse" xlink:href="#linearGradient4555"/><linearGradient id="linearGradient4219-3" x1="47.922" x2="221.895" y1="923.408" y2="923.408" gradientUnits="userSpaceOnUse" xlink:href="#linearGradient4616"/></defs><metadata id="metadata7"/><g id="layer1" transform="translate(-35.09189,-847.07199)"><g id="g4839" stroke="url(#linearGradient4219)" stroke-opacity="1" transform="matrix(1.2518953,0,0,1.2518953,-22.749081,-360.20666)"><g id="g4528" stroke="url(#linearGradient4219-3)" stroke-opacity="1" transform="matrix(0.18526723,-0.07226682,0.07226682,0.18526723,-46.206969,789.35349)"><g id="g4571" stroke="#0f0" stroke-opacity="1" transform="matrix(0.9272789,0.37437127,-0.37437127,0.9272789,412.0893,17.397381)"><path id="path4184-1" fill="none" stroke="#0f0" stroke-dasharray="none" stroke-miterlimit="4" stroke-opacity="1" stroke-width="7.8" d="m 135.06144,1018.3953 c -8.86014,0 -17.6754,2.2612 -21.42304,5.5741 -6.20979,13.4102 -4.8224,25.8506 -1.94756,39.0863 a 2.124104,2.124104 0 0 1 0.0673,0.5373 c -0.36864,9.7465 -1.01628,9.711 -0.0673,18.6695 a 2.124104,2.124104 0 0 1 0,0.067 2.124104,2.124104 0 0 1 0.13424,0.4029 c 0.82085,10.8001 10.75132,19.4754 23.10188,19.4754 12.35057,0 22.21434,-8.6672 23.03525,-19.4754 a 2.124104,2.124104 0 0 1 0.0672,-0.1345 c 1.08052,-9.3416 0.16224,-9.3043 0,-18.5353 a 2.124104,2.124104 0 0 1 0.0645,-0.5394 c 2.95705,-13.4205 4.59673,-25.9986 -1.67837,-39.5547 -3.75004,-3.3199 -12.49436,-5.5747 -21.35474,-5.5747 z" opacity="1"/><rect id="rect3845" width="7.473" height="16.814" x="131.745" y="1027.561" fill="#0f0" fill-opacity="1" stroke="#0f0" stroke-linecap="round" stroke-linejoin="round" stroke-opacity="1" stroke-width="1.868" rx="3.736" ry="3.736"/><path id="path4561" fill="none" fill-opacity="1" fill-rule="evenodd" stroke="#0f0" stroke-dasharray="none" stroke-linecap="round" stroke-linejoin="round" stroke-miterlimit="4" stroke-opacity="1" stroke-width="1.997" d="m 135.59367,1022.1053 0,30.354"/></g></g></g></g></svg>