<svg xmlns="http://www.w3.org/2000/svg" xmlns:svg="http://www.w3.org/2000/svg" xmlns:xlink="http://www.w3.org/1999/xlink" id="svg2" width="24" height="24" version="1.1" viewBox="0 0 24 24"><defs id="defs4"><linearGradient id="linearGradient4555"><stop id="stop4557" offset="0" stop-color="#01ff1e" stop-opacity="1"/><stop id="stop4559" offset="1" stop-color="#5a5a5a"/></linearGradient><linearGradient id="linearGradient4616"><stop id="stop4618" offset="0" stop-color="red" stop-opacity="1"/><stop id="stop4620" offset=".25" stop-color="#ff0" stop-opacity="1"/><stop id="stop4622" offset=".5" stop-color="#0ff" stop-opacity="1"/><stop id="stop4624" offset=".75" stop-color="#00f" stop-opacity="1"/><stop id="stop4626" offset="1" stop-color="#f0f" stop-opacity="1"/></linearGradient><marker id="marker4576" orient="auto" overflow="visible" refX="0" refY="0"><path id="path4578" fill-rule="evenodd" stroke="#000" stroke-width="1pt" d="m -2.5,-1 c 0,2.76 -2.24,5 -5,5 -2.76,0 -5,-2.24 -5,-5 0,-2.76 2.24,-5 5,-5 2.76,0 5,2.24 5,5 z" transform="matrix(0.8,0,0,0.8,5.92,0.8)"/></marker><marker id="DotL" orient="auto" overflow="visible" refX="0" refY="0"><path id="path4286" fill-rule="evenodd" stroke="#000" stroke-width="1pt" d="m -2.5,-1 c 0,2.76 -2.24,5 -5,5 -2.76,0 -5,-2.24 -5,-5 0,-2.76 2.24,-5 5,-5 2.76,0 5,2.24 5,5 z" transform="matrix(0.8,0,0,0.8,5.92,0.8)"/></marker><marker id="Arrow1Lend" orient="auto" overflow="visible" refX="0" refY="0"><path id="path4228" fill-rule="evenodd" stroke="#000" stroke-width="1pt" d="M 0,0 5,-5 -12.5,0 5,5 0,0 Z" transform="matrix(-0.8,0,0,-0.8,-10,0)"/></marker><marker id="marker4496" orient="auto" overflow="visible" refX="0" refY="0"><path id="path4498" fill-rule="evenodd" stroke="#000" stroke-width="1pt" d="M 0,0 5,-5 -12.5,0 5,5 0,0 Z" transform="matrix(0.8,0,0,0.8,10,0)"/></marker><marker id="marker4481" orient="auto" overflow="visible" refX="0" refY="0"><path id="path4225" fill-rule="evenodd" stroke="#000" stroke-width="1pt" d="M 0,0 5,-5 -12.5,0 5,5 0,0 Z" transform="matrix(0.8,0,0,0.8,10,0)"/></marker><marker id="Arrow1Lstart" orient="auto" overflow="visible" refX="0" refY="0"><path id="path4461" fill="#0f0" fill-opacity="1" fill-rule="evenodd" stroke="#000" stroke-opacity="1" stroke-width="1pt" d="M 0,0 5,-5 -12.5,0 5,5 0,0 Z" transform="matrix(0.8,0,0,0.8,10,0)"/></marker><linearGradient id="linearGradient4190"><stop id="stop4192" offset="0"/><stop id="stop4194" offset="1" stop-opacity="0"/></linearGradient><linearGradient id="linearGradient7603"><stop id="stop7605" offset="0" stop-color="#afafaf"/><stop id="stop7607" offset="1" stop-color="#5a5a5a"/></linearGradient><linearGradient id="linearGradient4135" x1="24.5" x2="24.5" y1="3" y2="44.5" gradientUnits="userSpaceOnUse" xlink:href="#linearGradient7603"/><radialGradient id="radialGradient4143" cx="23.528" cy="10.895" r="2.5" gradientTransform="matrix(1.3889,-2.8719e-7,4.4279e-7,2.1414,-9.1501,-13.541)" gradientUnits="userSpaceOnUse"><stop id="stop4576" offset="0" stop-color="#828282"/><stop id="stop4578" offset="1" stop-color="#646662"/></radialGradient><radialGradient id="radialGradient4172" cx="16.184" cy="16.539" r="13.477" gradientTransform="matrix(4.3195,-0.085864,0.060478,3.0424,-54.725,-36.555)" gradientUnits="userSpaceOnUse"><stop id="stop6546" offset="0" stop-color="#fafafa"/><stop id="stop6548" offset="1" stop-color="#c8c8c8"/></radialGradient><linearGradient id="linearGradient4174" x1="24.559" x2="24.5" y1="3" y2="45" gradientUnits="userSpaceOnUse" xlink:href="#linearGradient7603"/><linearGradient id="linearGradient4188" x1="23.823" x2="24.559" y1="4.11" y2="44" gradientTransform="translate(-3.2210808,-4.985006)" gradientUnits="userSpaceOnUse" xlink:href="#linearGradient4616"><stop id="stop6969" offset="0" stop-color="#fff"/><stop id="stop6971" offset="1" stop-color="#fff" stop-opacity="0"/></linearGradient><linearGradient id="linearGradient4198" x1="16" x2="13" y1="33" y2="34" gradientUnits="userSpaceOnUse" xlink:href="#linearGradient4190"/><linearGradient id="linearGradient4206" x1="32.99" x2="36" y1="33.05" y2="34" gradientUnits="userSpaceOnUse" xlink:href="#linearGradient4190"/><radialGradient id="radialGradient3626" cx="4.602" cy="34.157" r="8.342" gradientTransform="matrix(1,0,0,0.74569,0,8.6866)" gradientUnits="userSpaceOnUse" xlink:href="#linearGradient4190"/><linearGradient id="linearGradient4188-6" x1="23.823" x2="24.559" y1="4.11" y2="44" gradientTransform="matrix(0.79878884,0,0,0.79878884,169.7406,1042.3879)" gradientUnits="userSpaceOnUse"><stop id="stop6969-2" offset="0" stop-color="#fff"/><stop id="stop6971-6" offset="1" stop-color="#fff" stop-opacity="0"/></linearGradient><radialGradient id="radialGradient4143-8" cx="23.528" cy="10.895" r="2.5" gradientTransform="matrix(2.0716025,-4.2835592e-7,6.6043984e-7,3.1939878,85.291306,997.87195)" gradientUnits="userSpaceOnUse"><stop id="stop4576-7" offset="0" stop-color="#828282"/><stop id="stop4578-9" offset="1" stop-color="#646662"/></radialGradient><linearGradient id="linearGradient4135-2" x1="24.5" x2="24.5" y1="3" y2="44.5" gradientTransform="matrix(1.4915419,0,0,1.4915419,98.939063,1018.0689)" gradientUnits="userSpaceOnUse" xlink:href="#linearGradient4555"/><linearGradient id="linearGradient4296" x1="47.922" x2="221.895" y1="923.408" y2="923.408" gradientUnits="userSpaceOnUse" xlink:href="#linearGradient4616"/></defs><metadata id="metadata7"/><g id="layer1" fill="gray" fill-opacity="1" stroke="#01ff1f" stroke-opacity="1" transform="matrix(1.0833793,0,0,1.1402528,-40.101758,-966.41899)"><g id="layer14" fill="#006000" fill-opacity="1" stroke="#01ff1d" stroke-dasharray="none" stroke-linejoin="miter" stroke-miterlimit="4" stroke-opacity="1" stroke-width=".496" transform="matrix(1.3959561,0,0,1.3263286,-745.82453,421.857)"><path id="rect26937" fill="#006000" fill-opacity="1" stroke="#01ff1d" stroke-dasharray="none" stroke-linejoin="miter" stroke-miterlimit="4" stroke-opacity="1" stroke-width=".496" d="m 569,321.97 c -0.25562,0 -0.52288,0.0854 -0.71875,0.28125 l -6.0312,6.0312 c -0.39174,0.39174 -0.39174,1.0458 0,1.4375 l 4.3438,4.3438 1,-0.53125 c -0.017,-0.16809 -0.0312,-0.3274 -0.0312,-0.5 0,-0.1726 0.0141,-0.33191 0.0312,-0.5 l -1.8438,-1 c 0.0975,-0.44488 0.22853,-0.87248 0.40625,-1.2812 l 2.0938,0.28125 c 0.1695,-0.29 0.37133,-0.56351 0.59375,-0.8125 l -0.90625,-1.9062 c 0.33555,-0.29842 0.67387,-0.58239 1.0625,-0.8125 l 1.5312,1.4688 c 0.3057,-0.13661 0.63429,-0.2392 0.96875,-0.3125 l 0.40625,-2.0938 c 0.21544,-0.0199 0.4356,-0.0312 0.65625,-0.0312 0.22065,0 0.44081,0.0113 0.65625,0.0312 l 0.40625,2.0938 c 0.33446,0.0733 0.66305,0.17589 0.96875,0.3125 l 0.6875,-0.65625 -5.5625,-5.5625 c -0.19587,-0.19587 -0.46313,-0.28125 -0.71875,-0.28125 z m 3.5625,8.0625 c -1.6568,0 -3,1.3432 -3,3 0,0.79675 0.30578,1.5253 0.8125,2.0625 l 4.25,-4.25 c -0.53719,-0.50672 -1.2658,-0.8125 -2.0625,-0.8125 z m -4.3125,5.5 -0.15625,0.0312 0.1875,0.1875 c 0.0605,0.0605 0.14862,0.0832 0.21875,0.125 -0.0839,-0.11796 -0.17712,-0.21905 -0.25,-0.34375 z" color="#000" enable-background="new"/></g></g></svg>