<svg xmlns="http://www.w3.org/2000/svg" xmlns:svg="http://www.w3.org/2000/svg" xmlns:xlink="http://www.w3.org/1999/xlink" id="svg2" width="250" height="250" version="1.1" viewBox="0 0 250 250"><title id="title4152">Polychromatic Loading</title><defs id="defs4"><linearGradient id="linearGradient4194"><stop id="stop4196" offset="0" stop-color="#bd00f0" stop-opacity="1"/><stop id="stop4198" offset="1" stop-color="#15ebfb" stop-opacity="1"/></linearGradient><linearGradient id="linearGradient4200" x1="516.361" x2="516.361" y1="416.869" y2="535.562" gradientTransform="translate(-126.91669,-18.01769)" gradientUnits="userSpaceOnUse" xlink:href="#linearGradient4194"/></defs><metadata id="metadata7"/><g id="layer1" transform="translate(-221.79208,-351.9259)"><path id="path4155" fill="url(#linearGradient4200)" fill-opacity="1" fill-rule="evenodd" stroke="none" stroke-linecap="butt" stroke-linejoin="miter" stroke-opacity="1" stroke-width="1" d="m 347.19046,398.27308 14.10714,5.17857 c 3.98305,1.46213 7.94392,3.0377 11.60714,5.17857 3.49938,2.04512 6.72553,4.52684 9.82143,7.14286 4.72492,3.99253 9.23142,8.39118 12.32143,13.75 2.57663,4.46851 4.08773,9.46477 5.35714,14.46429 1.42435,5.60973 2.57842,11.36082 2.32143,17.14285 -0.3515,7.90852 -3.3117,15.44326 -4.82143,23.21429 -0.75371,3.87956 -1.14621,7.83433 -1.07143,11.78571 0.067,3.54133 0.5091,7.07211 1.25,10.53572 0.56924,2.66113 1.35275,5.36149 3.03572,7.5 1.21698,1.54638 2.90881,2.7514 4.82142,3.21428 2.35493,0.56993 4.82763,3e-5 7.14286,-0.71428 3.1229,-0.9635 6.21499,-2.22305 8.75,-4.28572 2.99594,-2.43771 5.03267,-5.84407 6.78572,-9.28571 1.75808,-3.4515 3.29746,-7.02075 4.46428,-10.71429 0.62705,-1.98492 1.14694,-4.00896 1.42857,-6.07143 0.5007,-3.66679 0.24152,-7.39453 -0.17857,-11.07142 -0.40601,-3.55367 -0.96403,-7.10164 -1.96428,-10.53572 -1.00243,-3.44157 -2.44008,-6.73907 -3.92858,-10 -1.45943,-3.19725 -2.9726,-6.37193 -4.64285,-9.46428 -2.47493,-4.58215 -5.29783,-8.98542 -8.57143,-13.03572 -3.89998,-4.82529 -8.42988,-9.13396 -13.39286,-12.85714 -4.73271,-3.55044 -9.84412,-6.56237 -15,-9.46429 -3.13393,-1.76389 -6.289,-3.49025 -9.46428,-5.17857 -4.09312,-1.12424 -8.20072,-2.19579 -12.32143,-3.21428 -3.2658,-0.80719 -6.53984,-1.58105 -9.82143,-2.32143 l -8.03571,-0.89286 z"/></g></svg>