<svg xmlns="http://www.w3.org/2000/svg" xmlns:svg="http://www.w3.org/2000/svg" xmlns:xlink="http://www.w3.org/1999/xlink" id="svg2" width="250" height="250" version="1.1" viewBox="0 0 250 250"><title id="title4152">Polychromatic Loading</title><defs id="defs4"><linearGradient id="linearGradient4210"><stop id="stop4212" offset="0" stop-color="#a3ff09" stop-opacity="1"/><stop id="stop4214" offset="1" stop-color="#0febdc" stop-opacity="1"/></linearGradient><linearGradient id="linearGradient4216" x1="270.879" x2="427.901" y1="647.683" y2="647.683" gradientTransform="translate(12.484365,-113.4771)" gradientUnits="userSpaceOnUse" xlink:href="#linearGradient4210"/></defs><metadata id="metadata7"/><g id="layer1" transform="translate(-221.79208,-351.9259)"><path id="path4178" fill="url(#linearGradient4216)" fill-opacity="1" fill-rule="evenodd" stroke="none" stroke-linecap="butt" stroke-linejoin="miter" stroke-opacity="1" stroke-width="1" d="m 439.89507,495.40296 c -1.90194,3.8887 -3.95765,7.70219 -6.16071,11.42857 -3.14705,5.3231 -6.60415,10.48048 -10.625,15.17857 -4.29921,5.02333 -9.23227,9.50324 -14.64286,13.30358 -5.03605,3.53727 -10.49175,6.48894 -16.25,8.66071 -4.80586,1.81257 -9.81828,3.08005 -14.91071,3.75 -2.7827,0.36608 -5.58708,0.55413 -8.39286,0.625 -3.09581,0.0782 -6.1949,0.0139 -9.28571,-0.17857 -2.212,-0.13777 -4.42244,-0.34154 -6.60715,-0.71429 -2.84867,-0.48603 -5.642,-1.25743 -8.39285,-2.14285 -4.96837,-1.59918 -9.8073,-3.57116 -14.64286,-5.53572 -5.12567,-2.08243 -10.25486,-4.15922 -15.44643,-6.07143 -2.89714,-1.0671 -5.81332,-2.0828 -8.75,-3.03571 -2.57178,-0.83451 -5.17482,-1.62428 -7.85714,-1.96429 -2.4477,-0.31027 -4.97734,-0.23419 -7.32143,0.53572 -1.35582,0.44531 -2.65325,1.13213 -3.66072,2.14285 -1.10131,1.10487 -1.80845,2.5446 -2.32142,4.01786 -0.54851,1.57532 -0.89862,3.25286 -0.71429,4.91072 0.23487,2.11244 1.30835,4.02437 2.32143,5.89285 1.10041,2.02955 2.15868,4.09047 3.48214,5.98215 1.90031,2.7162 4.31555,5.03615 6.875,7.14285 3.12255,2.57019 6.4893,4.85354 10.08929,6.69643 3.6036,1.84473 7.42792,3.24159 11.33928,4.28572 3.4833,0.92986 7.04002,1.58227 10.625,1.96428 4.53348,0.48309 9.105,0.53373 13.66072,0.35714 4.39417,-0.17032 8.78327,-0.55204 13.125,-1.25 4.27963,-0.68797 8.50632,-1.68205 12.67857,-2.85714 4.52447,-1.27429 8.99469,-2.76452 13.30357,-4.64286 5.67667,-2.47459 11.04838,-5.61254 16.16071,-9.10714 3.12615,-2.13692 6.15928,-4.40888 9.10715,-6.78571 2.52925,-2.0393 4.99788,-4.15767 7.32143,-6.42857 2.88134,-2.81605 5.53309,-5.86046 8.03571,-9.01786 2.4276,-3.06275 4.7189,-6.23665 6.78571,-9.55357 2.02237,-3.24561 3.82757,-6.62472 5.44643,-10.08929 1.57761,-3.37629 2.97895,-6.83493 4.19643,-10.35714 l 1.42857,-7.14286 z"/></g></svg>