<svg xmlns="http://www.w3.org/2000/svg" xmlns:svg="http://www.w3.org/2000/svg" xmlns:xlink="http://www.w3.org/1999/xlink" id="svg2" width="250" height="250" version="1.1" viewBox="0 0 250 250"><title id="title4152">Polychromatic Loading</title><defs id="defs4"><linearGradient id="linearGradient4182"><stop id="stop4184" offset="0" stop-color="#f5c71f" stop-opacity="1"/><stop id="stop4186" offset="1" stop-color="#e90001" stop-opacity="1"/></linearGradient><linearGradient id="linearGradient4192" x1="183.126" x2="183.126" y1="515.16" y2="391.416" gradientTransform="translate(93.801645,-7.4110886)" gradientUnits="userSpaceOnUse" xlink:href="#linearGradient4182"/></defs><metadata id="metadata7"/><g id="layer1" transform="translate(-221.79208,-351.9259)"><path id="path4151" fill="url(#linearGradient4192)" fill-opacity="1" fill-rule="evenodd" stroke="none" stroke-linecap="butt" stroke-linejoin="miter" stroke-opacity="1" stroke-width="1" d="m 263.0664,508.43231 c -3.71037,-10.05341 -6.42174,-20.47523 -8.08123,-31.0622 -0.86412,-5.51277 -1.44447,-11.09038 -1.26269,-16.66751 0.19957,-6.12321 1.31446,-12.17715 2.52539,-18.18275 1.49413,-7.41013 3.14401,-14.80663 5.55583,-21.97082 2.28831,-6.79733 5.26589,-13.37866 9.09138,-19.44543 3.07157,-4.87114 6.73687,-9.45159 11.36421,-12.87945 3.49422,-2.58846 7.47833,-4.47304 11.61676,-5.80837 2.53094,-0.81665 5.17499,-1.43744 7.82868,-1.2627 1.89333,0.12467 3.79625,0.67806 5.3033,1.83091 0.73611,0.5631 1.37052,1.26561 1.81909,2.07661 0.44858,0.81101 0.70784,1.73169 0.70629,2.65848 -0.002,1.02516 -0.31875,2.02986 -0.77284,2.94897 -0.45408,0.9191 -1.04341,1.76352 -1.62627,2.60686 -2.71029,3.9215 -5.33572,7.91061 -8.33376,11.61676 -4.95445,6.12465 -10.86038,11.3971 -16.41498,16.98319 -1.41794,1.42598 -2.81555,2.87522 -4.10374,4.41942 -1.87186,2.24386 -3.5049,4.67933 -4.98763,7.19733 -1.90188,3.22981 -3.56007,6.59939 -5.05076,10.03839 -1.67449,3.86303 -3.14031,7.81987 -4.29315,11.8693 -0.89912,3.15821 -1.6068,6.36857 -2.20971,9.59645 -0.41434,2.21831 -0.77965,4.44739 -1.01015,6.69226 -0.24125,2.34961 -0.33434,4.71154 -0.44194,7.07106 -0.14201,3.11408 -0.15512,6.23424 0.0631,9.34391 l 0.50508,7.19734 2.20974,13.13199 z"/></g></svg>