<svg xmlns="http://www.w3.org/2000/svg" xmlns:svg="http://www.w3.org/2000/svg" id="svg7196" width="15.133" height="15.133" version="1.1" viewBox="0 0 14.188 14.188"><metadata id="metadata7201"/><g id="layer1" transform="translate(163.52232,-525.26845)"><path id="macro-led" fill="#01ff1c" fill-opacity="1" stroke="none" d="m -156.42857,525.26845 c -3.91525,0 -7.09375,3.1785 -7.09375,7.09375 0,3.91525 3.1785,7.09375 7.09375,7.09375 3.91525,0 7.09375,-3.1785 7.09375,-7.09375 0,-3.91525 -3.1785,-7.09375 -7.09375,-7.09375 z m -1.02314,3.51277 c 0.84834,1e-5 1.44531,0.31468 1.77344,0.95493 0.48018,-0.64025 1.12554,-0.95492 1.90986,-0.95493 0.64824,1e-5 1.14044,0.15944 1.5006,0.51157 0.36813,0.35214 0.54566,0.86835 0.54567,1.5006 l 0,4.57001 -1.67112,0 0,-4.33128 c -1e-5,-0.25609 -0.0707,-0.42771 -0.23874,-0.57978 -0.16006,-0.15205 -0.40198,-0.23873 -0.68209,-0.23873 -0.36015,0 -0.64453,0.11696 -0.85261,0.34105 -0.20009,0.22409 -0.27285,0.52067 -0.27284,0.92082 l 0,3.88792 -1.70523,0 0,-4.33128 c 0,-0.25609 -0.0707,-0.42771 -0.23873,-0.57978 -0.16007,-0.15205 -0.36788,-0.23873 -0.64798,-0.23873 -0.36015,0 -0.64454,0.11696 -0.85262,0.34105 -0.20009,0.22409 -0.30694,0.52067 -0.30694,0.92082 l 0,3.88792 -1.70523,0 0,-6.47987 1.67113,0 0,0.81851 c 0.2801,-0.32812 0.5544,-0.58013 0.81851,-0.71619 0.2721,-0.14405 0.58677,-0.20462 0.95492,-0.20463 z" display="inline"/></g></svg>