<svg xmlns="http://www.w3.org/2000/svg" xmlns:svg="http://www.w3.org/2000/svg" xmlns:xlink="http://www.w3.org/1999/xlink" id="svg2" width="32" height="32" version="1.1" viewBox="0 0 30 30"><title id="title4324">Polychromatic</title><defs id="defs4"><linearGradient id="linearGradient4777"><stop id="stop4773" offset="0" stop-color="#000" stop-opacity=".576"/><stop id="stop4782" offset=".478" stop-color="#000" stop-opacity=".576"/><stop id="stop4775" offset="1" stop-color="#000" stop-opacity="0"/></linearGradient><linearGradient id="linearGradient4616"><stop id="stop4618" offset="0" stop-color="red" stop-opacity="1"/><stop id="stop4620" offset=".25" stop-color="#ff0" stop-opacity="1"/><stop id="stop4622" offset=".5" stop-color="#0ff" stop-opacity="1"/><stop id="stop4624" offset=".75" stop-color="#00f" stop-opacity="1"/><stop id="stop4626" offset="1" stop-color="#f0f" stop-opacity="1"/></linearGradient><linearGradient id="linearGradient4730" x1="47.922" x2="221.895" y1="923.408" y2="923.408" gradientUnits="userSpaceOnUse" xlink:href="#linearGradient4616"/><linearGradient id="linearGradient4530" x1="47.922" x2="221.895" y1="923.408" y2="923.408" gradientUnits="userSpaceOnUse" xlink:href="#linearGradient4616"/><linearGradient id="linearGradient4532" x1="47.922" x2="221.895" y1="923.408" y2="923.408" gradientUnits="userSpaceOnUse" xlink:href="#linearGradient4616"/><linearGradient id="linearGradient4544" x1="47.922" x2="221.895" y1="923.408" y2="923.408" gradientUnits="userSpaceOnUse" xlink:href="#linearGradient4616"/><linearGradient id="linearGradient4548" x1="47.922" x2="221.895" y1="923.408" y2="923.408" gradientUnits="userSpaceOnUse" xlink:href="#linearGradient4616"/><linearGradient id="linearGradient4550" x1="47.922" x2="221.895" y1="923.408" y2="923.408" gradientUnits="userSpaceOnUse" xlink:href="#linearGradient4616"/><linearGradient id="linearGradient4562" x1="47.922" x2="221.895" y1="923.408" y2="923.408" gradientUnits="userSpaceOnUse" xlink:href="#linearGradient4616"/><linearGradient id="linearGradient4779" x1="43" x2="69" y1="994.362" y2="1017.362" gradientTransform="matrix(0.49180322,0,0,0.49180322,6.5616764,526.39157)" gradientUnits="userSpaceOnUse" xlink:href="#linearGradient4777"/></defs><metadata id="metadata7"/><g id="layer1" display="inline" transform="translate(-14.000599,-1007.3622)"><rect id="rect4523" width="30" height="30" x="14.001" y="1007.362" fill="#01ff20" fill-opacity="1" stroke="none" stroke-dasharray="none" stroke-linecap="square" stroke-linejoin="miter" stroke-miterlimit="4" stroke-width="1.721" opacity="1" ry="0"/><rect id="rect4525" width="28.033" height="28.033" x="14.984" y="1008.346" fill="#222" fill-opacity="1" stroke="none" stroke-dasharray="none" stroke-linecap="square" stroke-linejoin="miter" stroke-miterlimit="4" stroke-width="1.608" opacity="1" ry="0"/><path id="path4771" fill="url(#linearGradient4779)" fill-opacity="1" fill-rule="evenodd" stroke="none" stroke-linecap="butt" stroke-linejoin="miter" stroke-opacity="1" stroke-width=".937" d="m 37.053409,1012.9634 0,7.8687 -17.705095,0 5.901999,5.9011 1.475049,-2.4584 c 1.737602,0.4699 3.704451,-1.2112 2.711461,0.3215 -0.161223,0.317 1.947545,1.1665 1.714588,1.1535 l -0.983365,3.4427 -0.983366,2.4594 -1.475051,1.475 -2.45943,0 c 0,0 2.89998,2.7434 4.749936,3.2551 4.188621,1.1585 13.013338,-0.7961 13.013338,-0.7961 l 0.0033,-17.213 z"/><g id="g6498" transform="matrix(0.45869599,0,0,0.45869599,10.000157,560.05168)"><g id="g4778"><path display="inline" style="line-height:normal;text-indent:0;text-align:start;text-decoration-line:none;text-decoration-style:solid;text-decoration-color:#000;text-transform:none;white-space:normal;isolation:auto;mix-blend-mode:normal;solid-color:#000;solid-opacity:1" id="path4222-5" fill="#01ff20" fill-opacity="1" fill-rule="evenodd" stroke="none" stroke-dasharray="none" stroke-dashoffset="0" stroke-linecap="square" stroke-linejoin="miter" stroke-miterlimit="4" stroke-opacity="1" stroke-width="1.845" d="m 20.378502,987.37736 0,17.15484 38.598367,0 0,-17.15482 -38.598367,2e-5 z m 2.144354,2.14439 34.309659,-2e-5 0,12.86617 -34.309659,0 z" baseline-shift="baseline" clip-rule="nonzero" color="#000" color-interpolation="sRGB" color-interpolation-filters="linearRGB" color-rendering="auto" direction="ltr" enable-background="accumulate" font-family="sans-serif" font-size="medium" font-stretch="normal" font-style="normal" font-variant="normal" font-weight="normal" image-rendering="auto" letter-spacing="normal" opacity="1" overflow="visible" shape-rendering="auto" text-anchor="start" text-decoration="none" text-rendering="auto" visibility="visible" word-spacing="normal" writing-mode="lr-tb"/><path display="inline" style="line-height:normal;text-indent:0;text-align:start;text-decoration-line:none;text-decoration-style:solid;text-decoration-color:#000;text-transform:none;white-space:normal;isolation:auto;mix-blend-mode:normal;solid-color:#000;solid-opacity:1" id="path4313-9" fill="#01ff1f" fill-opacity="1" fill-rule="evenodd" stroke="none" stroke-dasharray="none" stroke-dashoffset="0" stroke-linecap="square" stroke-linejoin="round" stroke-miterlimit="4" stroke-opacity="1" stroke-width="1.845" d="m 58.372592,998.36724 c 1.246991,-0.0939 2.539271,0.23294 3.591797,0.9082 1.05253,0.67527 1.88975,1.71596 2.324219,2.88866 0.493998,1.3333 0.469246,2.8796 -0.08789,4.1718 -0.555685,1.2889 -1.669676,2.3616 -2.974609,2.8379 -1.412828,0.5157 -3.092572,0.3892 -4.761719,0.039 -1.677569,-0.3513 -3.428335,-0.9237 -5.347656,-1.0684 -3.280309,-0.2472 -6.606768,0.8899 -9.050781,3.0918 l -0.685547,0.6172 1.234375,1.3711 0.685547,-0.6172 c 2.055661,-1.852 4.918641,-2.831 7.677734,-2.623 1.62899,0.1227 3.302183,0.6551 5.107422,1.0332 1.813661,0.3804 3.843581,0.595 5.773437,-0.1094 1.812951,-0.6617 3.278737,-2.0828 4.03711,-3.8418 0.756921,-1.7556 0.782201,-3.7658 0.123047,-5.5449 -0.577019,-1.55734 -1.66074,-2.90198 -3.058594,-3.79879 -1.397858,-0.89682 -3.070436,-1.31995 -4.726563,-1.19532 z" baseline-shift="baseline" clip-rule="nonzero" color="#000" color-interpolation="sRGB" color-interpolation-filters="linearRGB" color-rendering="auto" direction="ltr" enable-background="accumulate" font-family="sans-serif" font-size="medium" font-stretch="normal" font-style="normal" font-variant="normal" font-weight="normal" image-rendering="auto" letter-spacing="normal" opacity="1" overflow="visible" shape-rendering="auto" text-anchor="start" text-decoration="none" text-rendering="auto" visibility="visible" word-spacing="normal" writing-mode="lr-tb"/><path display="inline" style="line-height:normal;text-indent:0;text-align:start;text-decoration-line:none;text-decoration-style:solid;text-decoration-color:#000;text-transform:none;white-space:normal;isolation:auto;mix-blend-mode:normal;solid-color:#000;solid-opacity:1" id="path4184-1-4" fill="#01ff1f" fill-opacity="1" fill-rule="nonzero" stroke="none" stroke-dasharray="none" stroke-dashoffset="0" stroke-linecap="butt" stroke-linejoin="miter" stroke-miterlimit="4" stroke-opacity="1" stroke-width="1.847" d="m 36.278774,1011.3015 c -2.204463,2.6228 -3.716895,5.967 -4.304499,8.9803 -0.848854,1.8309 -1.330154,2.9128 -1.696287,4.218 -0.931623,2.925 0.779999,6.1575 3.905229,7.4053 3.127132,1.2486 6.618179,0.088 7.997956,-2.6596 1.00923,-1.8133 1.312193,-3.0808 1.702222,-4.1108 1.554712,-3.3521 3.330945,-6.4565 3.284398,-9.6169 -1.377211,-1.5215 -3.111514,-2.9005 -4.784598,-3.6043 -2.125214,-0.584 -4.243365,-1.2207 -6.104421,-0.612 z m 9.030082,4.911 c -0.04511,2.3598 -1.414786,5.1393 -3.08757,8.1003 -0.68639,1.3785 -1.067489,2.9116 -1.700557,4.1116 -0.912205,1.8231 -3.318219,2.7057 -5.642341,1.7778 -2.705942,-1.0099 -3.325695,-3.4151 -2.817549,-5.1938 0.597467,-1.7813 1.110277,-2.9167 1.710254,-4.2669 0.466456,-2.5614 1.503868,-5.5181 3.549442,-7.8101 0.779815,-0.1568 2.678229,0.012 4.140854,0.6027 1.462661,0.5904 2.758904,1.4683 3.847467,2.6784 z" baseline-shift="baseline" clip-rule="nonzero" color="#000" color-interpolation="sRGB" color-interpolation-filters="linearRGB" color-rendering="auto" direction="ltr" enable-background="accumulate" font-family="sans-serif" font-size="medium" font-stretch="normal" font-style="normal" font-variant="normal" font-weight="normal" image-rendering="auto" letter-spacing="normal" opacity="1" overflow="visible" shape-rendering="auto" text-anchor="start" text-decoration="none" text-rendering="auto" visibility="visible" word-spacing="normal" writing-mode="lr-tb"/><path display="inline" style="line-height:normal;text-indent:0;text-align:start;text-decoration-line:none;text-decoration-style:solid;text-decoration-color:#000;text-transform:none;white-space:normal;isolation:auto;mix-blend-mode:normal;solid-color:#000;solid-opacity:1" id="rect3845-8" fill="#01ff1f" fill-opacity="1" fill-rule="nonzero" stroke="none" stroke-dasharray="none" stroke-dashoffset="0" stroke-linecap="round" stroke-linejoin="round" stroke-miterlimit="4" stroke-opacity="1" stroke-width=".442" d="m 41.390862,1014.5981 c -0.567741,-0.2267 -1.218623,0.046 -1.447837,0.6078 l -0.832762,2.04 c -0.229215,0.5615 0.04751,1.2049 0.615255,1.4316 0.567743,0.2267 1.218192,-0.047 1.447407,-0.608 l 0.832761,-2.04 c 0.229215,-0.5615 -0.04708,-1.2047 -0.614824,-1.4314 z" baseline-shift="baseline" clip-rule="nonzero" color="#000" color-interpolation="sRGB" color-interpolation-filters="linearRGB" color-rendering="auto" direction="ltr" enable-background="accumulate" font-family="sans-serif" font-size="medium" font-stretch="normal" font-style="normal" font-variant="normal" font-weight="normal" image-rendering="auto" letter-spacing="normal" opacity="1" overflow="visible" shape-rendering="auto" text-anchor="start" text-decoration="none" text-rendering="auto" visibility="visible" word-spacing="normal" writing-mode="lr-tb"/><path id="rect4718" fill="#01ff20" fill-opacity="1" stroke="none" stroke-dasharray="none" stroke-linecap="square" stroke-linejoin="miter" stroke-miterlimit="4" stroke-width="1.836" d="m 17.066406,18.130859 0,3.199219 3.199219,0 0,-3.199219 -3.199219,0 z m 5.332032,0 0,3.199219 3.201171,0 0,-3.199219 -3.201171,0 z m 5.333984,0 0,3.199219 3.201172,0 0,-3.199219 -3.201172,0 z m 5.333984,0 0,3.199219 3.199219,0 0,-3.199219 -3.199219,0 z m 5.332032,0 0,3.199219 3.201171,0 0,-3.199219 -3.201171,0 z m 5.333984,0 0,3.199219 3.201172,0 0,-3.199219 -3.201172,0 z m -26.666016,5.333985 0,3.199218 3.199219,0 0,-3.199218 -3.199219,0 z m 5.332032,0 0,3.199218 3.201171,0 0,-3.199218 -3.201171,0 z m 5.333984,0 0,3.199218 3.201172,0 0,-3.199218 -3.201172,0 z m 5.333984,0 0,3.199218 3.199219,0 0,-3.199218 -3.199219,0 z m 5.332032,0 0,3.199218 3.201171,0 0,-3.199218 -3.201171,0 z m 5.333984,0 0,3.199218 3.201172,0 0,-3.199218 -3.201172,0 z" opacity="1" transform="matrix(1.0051658,0,0,1.0051658,7.5130208,973.44141)"/></g></g></g></svg>