<svg xmlns="http://www.w3.org/2000/svg" xmlns:svg="http://www.w3.org/2000/svg" id="svg6" version="1.1" viewBox="0 0 22 22"><title id="title4150">Breeze Light Keyboard Chroma</title><metadata id="metadata10"/><defs id="defs3051"><style id="current-color-scheme" type="text/css">.ColorScheme-Text{color:#f2f2f2}</style><style id="current-color-scheme-6" type="text/css">.ColorScheme-Text{color:#4d4d4d}</style></defs><path id="path4" fill="#4d4d4d" fill-opacity="1" stroke="none" d="m 13,1033.3622 v 1 1 c 0,0.554 -0.446,1 -1,1 -1.108,0 -2,0.892 -2,2 H 2 v 11 h 18 v -11 h -9 c 0,-0.554 0.446,-1 1,-1 1.108,0 2,-0.892 2,-2 v -1 -1 z m -10,6 h 7 1 8 v 1 H 3 Z m 0,2 h 16 v 7 H 15 7 3 Z" class="ColorScheme-Text" color="#f2f2f2" transform="translate(0,-1030.3622)"/><path id="path4534" fill="#e74c3c" fill-opacity="1" stroke="none" stroke-width=".047" d="m 4.0034201,12.502415 v -0.512712 h 1.0021186 1.0021187 v 0.512712 0.512711 H 5.0055387 4.0034201 Z" opacity="1"/><path id="path4536" fill="#f39c1f" fill-opacity="1" stroke="none" stroke-width=".047" d="m 6.9864709,12.502415 v -0.512712 h 1.0021187 1.0021186 v 0.512712 0.512711 H 7.9885896 6.9864709 Z" opacity="1"/><path id="path4538" fill="#f39c1f" fill-opacity="1" stroke="none" stroke-width=".047" d="M 4.0034201,14.506652 V 13.99394 h 1.0021186 1.0021187 v 0.512712 0.512712 H 5.0055387 4.0034201 Z" opacity="1"/><path id="path4540" fill="#c9ce3b" fill-opacity="1" stroke="none" stroke-width=".047" d="M 10.000595,12.984053 C 9.983505,12.966963 9.969522,12.736242 9.969522,12.471341 v -0.481638 h 1.025423 1.025424 v 0.512712 0.512711 h -0.99435 c -0.546893,0 -1.008333,-0.01398 -1.025424,-0.03107 z" opacity="1"/><path id="path4542" fill="#c9ce3b" fill-opacity="1" stroke="none" stroke-width=".047" d="M 6.9864709,14.506652 V 13.99394 h 1.0021187 1.0021186 v 0.512712 0.512712 H 7.9885896 6.9864709 Z" opacity="1"/><path id="path4544" fill="#c9ce3b" fill-opacity="1" stroke="none" stroke-width=".047" d="m 4.0034201,16.510889 v -0.512712 h 1.0021186 1.0021187 v 0.512712 0.512712 H 5.0055387 4.0034201 Z" opacity="1"/><path id="path4546" fill="#3daee9" fill-opacity="1" stroke="none" stroke-width=".047" d="m 12.999183,12.502415 v -0.512712 h 1.002118 1.002119 v 0.512712 0.512711 h -1.002119 -1.002118 z" opacity="1"/><path id="path4548" fill="#3daee9" fill-opacity="1" stroke="none" stroke-width=".047" d="M 10.000595,14.98829 C 9.9835048,14.9712 9.9695218,14.74048 9.9695218,14.475578 V 13.99394 h 1.0254232 1.025424 v 0.512712 0.512712 h -0.99435 c -0.546893,0 -1.008333,-0.01398 -1.025424,-0.03107 z" opacity="1"/><path id="path4556" fill="#2ecc71" fill-opacity="1" stroke="none" stroke-width=".047" d="m 12.999183,12.502415 v -0.512712 h 1.002118 1.002119 v 0.512712 0.512711 h -1.002119 -1.002118 z" opacity="1"/><path id="path4558" fill="#2ecc71" fill-opacity="1" stroke="none" stroke-width=".047" d="M 10.014978,14.899804 C 9.989977,14.834044 9.969522,14.603326 9.969522,14.387092 V 13.99394 h 1.025423 1.025424 v 0.512712 0.512712 h -0.979967 -0.979967 z" opacity="1"/><path id="path4560" fill="#9b59b6" fill-opacity="1" stroke="none" stroke-width=".047" d="m 15.982234,14.506652 v -0.51453 l 1.013771,0.01256 1.013771,0.01256 v 0.489407 0.489407 l -1.013771,0.01256 -1.013771,0.01256 z" opacity="1"/><path id="path4562" fill="#e74c3c" fill-opacity="1" stroke="none" stroke-width=".047" d="m 15.982234,16.511798 v -0.513621 h 1.027 1.027001 l -0.01323,0.50106 -0.01323,0.501059 -1.013771,0.01256 -1.013771,0.01256 z" opacity="1"/><path id="path4511" fill="#3daee9" fill-opacity="1" stroke="none" stroke-width=".066" d="m 16.020691,12.503538 v -0.461417 h 0.988751 0.988751 v 0.461417 0.461417 h -0.988751 -0.988751 z" opacity="1"/><path id="path4513" fill="#3daee9" fill-opacity="1" stroke="none" stroke-width=".066" d="m 13.054438,14.513999 v -0.494376 h 0.955793 0.955792 v 0.494376 0.494375 h -0.955792 -0.955793 z" opacity="1"/><path id="path4515" fill="#3daee9" fill-opacity="1" stroke="none" stroke-width=".066" d="m 6.9900983,16.491501 v -0.494376 h 3.9879627 3.987962 v 0.494376 0.494375 H 10.978061 6.9900983 Z" opacity="1"/></svg>