<svg xmlns="http://www.w3.org/2000/svg" width="23" height="22" version="1.1"><g stroke="#ff0101" opacity="0" transform="matrix(.55315 0 0 .55315 10.061 -543.09)"><path fill="none" stroke-linecap="round" stroke-linejoin="round" stroke-width="1.422" d="m14.69 985.78-30.313-0.024 0.02213 11.131h30.299v-11.112"/><g fill="#01ff1f"><g><g fill="#ff5c00"><g fill="#ff5c00" stroke="#ff0101" transform="matrix(.18234 0 0 .18234 -23.79 814.03) translate(1.8082) translate(.073967 -.15490) translate(-1.3839 .13393)"><rect width="9.596" height="9.596" x="60.211" y="956.28" fill="#ff5c00" stroke="#ff0101" stroke-linecap="round" stroke-linejoin="round" stroke-width="7.8" opacity="1" rx="1.837" ry="1.801"/></g></g><g stroke-linejoin="round" stroke-width="7.8" transform="matrix(.18234 0 0 .18234 -23.79 814.03) translate(1.8082)"><g stroke-linecap="round"><rect width="9.596" height="9.596" x="83.895" y="956.28" fill="#ffef00" opacity="1" rx="1.837" ry="1.801"/><rect width="9.596" height="9.596" x="108.9" y="956.28" fill="#7cff83" opacity="1" rx="1.837" ry="1.801"/><rect width="9.596" height="9.596" x="133.92" y="956.24" fill="#00e9ff" opacity="1" rx="1.837" ry="1.801"/><rect width="9.596" height="9.596" x="158.92" y="956.28" fill="#0056ff" opacity="1" rx="1.837" ry="1.801"/></g><rect width="9.596" height="9.596" x="183.89" y="956.28" fill="#3d00ff" opacity="1" rx="1.837" ry="1.801"/></g></g><g><g fill="#ff6400"><g fill="#ff6400" stroke="#ff0101" transform="matrix(.18234 0 0 .18234 -23.79 814.03) translate(1.8082 23.24) translate(.073967 -.15490) translate(-1.3839 .13393)"><rect width="9.596" height="9.596" x="60.211" y="956.28" fill="#ff6400" stroke="#ff0101" stroke-linecap="round" stroke-linejoin="round" stroke-width="7.8" opacity="1" rx="1.837" ry="1.801"/></g></g><g stroke-linecap="round" stroke-linejoin="round" stroke-width="7.8" transform="matrix(.18234 0 0 .18234 -23.79 814.03) translate(1.8082 23.24)"><rect width="9.596" height="9.596" x="83.895" y="956.28" fill="#ffef00" opacity="1" rx="1.837" ry="1.801"/><rect width="9.596" height="9.596" x="108.9" y="956.28" fill="#7cff83" opacity="1" rx="1.837" ry="1.801"/><rect width="9.596" height="9.596" x="133.92" y="956.24" fill="#00e9ff" opacity="1" rx="1.837" ry="1.801"/><rect width="9.596" height="9.596" x="158.92" y="956.28" fill="#0056ff" opacity="1" rx="1.837" ry="1.801"/><rect width="9.596" height="9.596" x="183.89" y="956.28" fill="#3c00ff" opacity="1" rx="1.837" ry="1.801"/></g></g></g><g fill="none"><path stroke-linecap="round" stroke-linejoin="round" stroke-width="1.422" d="m15.403 991.38c1.3568 0.16445 2.6549 0.78014 3.6408 1.7267 1.1454 1.0998 1.8611 2.6781 1.7742 4.2636-0.04344 0.79279-0.28443 1.5766-0.71201 2.2456-0.42758 0.66896-1.0428 1.2201-1.7637 1.5528-0.62609 0.2889-1.3207 0.411-2.0102 0.4177-0.6895 0.01-1.3759-0.099-2.0489-0.2495-1.3458-0.3008-2.6572-0.7817-4.0293-0.9198-2.3305-0.2345-4.747 0.5907-6.4473 2.2015"/><path stroke-width="1.422" d="m3.4073 1003.1c-1.498-0.6048-3.1428-0.8242-4.0026-0.5199-1.9653 1.8434-2.5799 4.0415-2.9974 6.4756a0.3873 0.3873 0 0 1 -0.025297 0.095c-0.72764 1.6227-0.83471 1.5725-1.2858 3.152a0.3873 0.3873 0 0 1 -0.00457 0.011 0.3873 0.3873 0 0 1 -0.00481 0.077c-0.59844 1.8821 0.48837 4.0267 2.5766 4.8698s4.3475 0.051 5.2241-1.7204a0.3873 0.3873 0 0 1 0.020544 -0.018c0.82036-1.5056 0.66255-1.562 1.2652-3.1338a0.3873 0.3873 0 0 1 0.047726 -0.087c1.4161-2.0673 2.5519-4.082 2.4163-6.8023-0.40742-0.8173-1.732-1.7955-3.23-2.4003z" opacity="1"/><path stroke-linecap="round" stroke-linejoin="round" stroke-width=".364" d="m3.2441 1003.8-2.072 5.1"/></g><rect width="1.363" height="3.066" x="378.1" y="930.58" fill="#006eff" stroke-linecap="round" stroke-linejoin="round" stroke-width=".341" rx=".681" ry=".681" transform="rotate(21.985)"/></g><g stroke="#ff0101"><path fill="none" stroke-linecap="round" stroke-linejoin="round" stroke-width="1.845" d="m58.586 989.32-39.33-0.031 0.02873 14.442h39.312v-14.417" transform="matrix(.42383 0 0 .42383 -6.6826 -417.05)"/><g fill="#ff0101"><g><g><g fill="#ff0101" stroke="#ff0101" transform="matrix(.42383 0 0 .42383 -6.6826 -417.05) matrix(.23657 0 0 .23657 8.659 766.48) translate(1.8082) translate(.073967 -.15490) translate(-1.3839 .13393)"><rect width="9.596" height="9.596" x="60.211" y="956.28" fill="#ff0101" stroke="#ff0101" stroke-linecap="round" stroke-linejoin="round" stroke-width="7.8" rx="1.837" ry="1.801"/></g></g><g stroke-linejoin="round" stroke-width="7.8" transform="matrix(.42383 0 0 .42383 -6.6826 -417.05) matrix(.23657 0 0 .23657 8.659 766.48) translate(1.8082)"><g stroke-linecap="round"><rect width="9.596" height="9.596" x="83.895" y="956.28" rx="1.837" ry="1.801"/><rect width="9.596" height="9.596" x="108.9" y="956.28" rx="1.837" ry="1.801"/><rect width="9.596" height="9.596" x="133.92" y="956.24" rx="1.837" ry="1.801"/><rect width="9.596" height="9.596" x="158.92" y="956.28" rx="1.837" ry="1.801"/></g><rect width="9.596" height="9.596" x="183.89" y="956.28" rx="1.837" ry="1.801"/></g></g><g><g><g fill="#ff0101" stroke="#ff0101" transform="matrix(.42383 0 0 .42383 -6.6826 -417.05) matrix(.23657 0 0 .23657 8.659 766.48) translate(1.8082 23.24) translate(.073967 -.15490) translate(-1.3839 .13393)"><rect width="9.596" height="9.596" x="60.211" y="956.28" fill="#ff0101" stroke="#ff0101" stroke-linecap="round" stroke-linejoin="round" stroke-width="7.8" rx="1.837" ry="1.801"/></g></g><g stroke-linecap="round" stroke-linejoin="round" stroke-width="7.8" transform="matrix(.42383 0 0 .42383 -6.6826 -417.05) matrix(.23657 0 0 .23657 8.659 766.48) translate(1.8082 23.24)"><rect width="9.596" height="9.596" x="83.895" y="956.28" rx="1.837" ry="1.801"/><rect width="9.596" height="9.596" x="108.9" y="956.28" rx="1.837" ry="1.801"/><rect width="9.596" height="9.596" x="133.92" y="956.24" rx="1.837" ry="1.801"/><rect width="9.596" height="9.596" x="158.92" y="956.28" rx="1.837" ry="1.801"/><rect width="9.596" height="9.596" x="183.89" y="956.28" rx="1.837" ry="1.801"/></g></g></g><path fill="none" stroke-linecap="round" stroke-linejoin="round" stroke-width="1.845" d="m59.511 996.59c1.7603 0.21338 3.4447 1.0122 4.7237 2.2403 1.4862 1.427 2.4147 3.4747 2.302 5.5319-0.05635 1.0287-0.36904 2.0456-0.92381 2.9136-0.55477 0.8681-1.353 1.5831-2.2883 2.0147-0.81233 0.3748-1.7136 0.5333-2.6082 0.542-0.89459 0.01-1.7852-0.1286-2.6583-0.3238-1.7462-0.3903-3.4476-1.0143-5.2279-1.1934-3.0237-0.3042-6.159 0.7664-8.3651 2.8564" transform="matrix(.42383 0 0 .42383 -6.6826 -417.05)"/><g><g stroke="#ff0101" transform="matrix(.42383 0 0 .42383 -6.6826 -417.05) matrix(.23657 0 0 .23657 7.0247 772.36) matrix(.92728 .37437 -.37437 .92728 412.09 17.397)"><path fill="none" stroke-width="7.8" d="m135.06 1018.4c-8.8601 0-17.675 2.2612-21.423 5.5741-6.2098 13.41-4.8224 25.851-1.9476 39.086a2.1241 2.1241 0 0 1 0.0673 0.5373c-0.36864 9.7465-1.0163 9.711-0.0673 18.67a2.1241 2.1241 0 0 1 0 0.067 2.1241 2.1241 0 0 1 0.13424 0.4029c0.82085 10.8 10.751 19.475 23.102 19.475s22.214-8.6672 23.035-19.475a2.1241 2.1241 0 0 1 0.0672 -0.1345c1.0805-9.3416 0.16224-9.3043 0-18.535a2.1241 2.1241 0 0 1 0.0645 -0.5394c2.957-13.42 4.5967-25.999-1.6784-39.555-3.75-3.3199-12.494-5.5747-21.355-5.5747z"/><rect width="7.473" height="16.814" x="131.75" y="1027.6" fill="#ff0101" stroke-linecap="round" stroke-linejoin="round" stroke-width="1.868" rx="3.736" ry="3.736"/><path fill="none" stroke-linecap="round" stroke-linejoin="round" stroke-width="1.997" d="m135.59 1022.1v30.354"/></g></g></g></svg>